<?xml version="1.0" encoding="UTF-8" standalone="no"?>
<svg
   viewBox="0 0 1080 220"
   width="1080"
   height="220"
   font-family="Sora SemiBold, Sora, sans-serif"
   version="1.1"
   id="svg64"
   sodipodi:docname="fathomline-wordmark-dark.svg"
   xmlns:inkscape="http://www.inkscape.org/namespaces/inkscape"
   xmlns:sodipodi="http://sodipodi.sourceforge.net/DTD/sodipodi-0.dtd"
   xmlns="http://www.w3.org/2000/svg"
   xmlns:svg="http://www.w3.org/2000/svg">
  <defs
     id="defs68" />
  <sodipodi:namedview
     id="namedview66"
     pagecolor="#ffffff"
     bordercolor="#666666"
     borderopacity="1.0"
     inkscape:pageshadow="2"
     inkscape:pageopacity="0.0"
     inkscape:pagecheckerboard="0" />
  <svg
     x="4"
     y="26"
     width="168"
     height="168"
     viewBox="0 0 256 256"
     overflow="visible"
     version="1.1"
     id="svg58">
    <defs
       id="defs19">
      <linearGradient
         id="depth"
         x1="0"
         y1="0"
         x2="0"
         y2="1">
        <stop
           offset="0"
           stop-color="#1C5E72"
           id="stop2" />
        <stop
           offset="0.42"
           stop-color="#13375C"
           id="stop4" />
        <stop
           offset="1"
           stop-color="#05101F"
           id="stop6" />
      </linearGradient>
      <linearGradient
         id="lead"
         x1="0"
         y1="0"
         x2="0"
         y2="1">
        <stop
           offset="0"
           stop-color="#E7EDF2"
           id="stop9" />
        <stop
           offset="1"
           stop-color="#9AA7B3"
           id="stop11" />
      </linearGradient>
      <linearGradient
         id="line"
         x1="0"
         y1="0"
         x2="0"
         y2="1">
        <stop
           offset="0"
           stop-color="#9FD9D6"
           id="stop14" />
        <stop
           offset="1"
           stop-color="#2BB3A3"
           id="stop16" />
      </linearGradient>
    </defs>
    <path
       id="rect21"
       style="fill:url(#depth)"
       d="m 56,0 h 144 c 31.024,0 56,24.976 56,56 v 144 c 0,31.024 -24.976,56 -56,56 H 56 C 24.976,256 0,231.024 0,200 V 56 C 0,24.976 24.976,0 56,0 Z" />
    <clipPath
       id="clip">
      <rect
         x="0"
         y="0"
         width="256"
         height="256"
         rx="56"
         ry="56"
         id="rect23" />
    </clipPath>
    <g
       clip-path="url(#clip)"
       opacity="0.5"
       id="g42">
      <path
         id="rect26"
         style="opacity:0.55;fill:#06121f"
         d="m 0,76.800003 h 256 v 2.4 H 0 Z" />
      <path
         id="rect28"
         style="opacity:0.18;fill:#3e7e92"
         d="m 0,79.199997 h 256 v 1.6 H 0 Z" />
      <path
         id="rect30"
         style="opacity:0.55;fill:#06121f"
         d="m 0,117.8 h 256 v 2.4 H 0 Z" />
      <path
         id="rect32"
         style="opacity:0.18;fill:#3e7e92"
         d="m 0,120.2 h 256 v 1.6 H 0 Z" />
      <path
         id="rect34"
         style="opacity:0.55;fill:#06121f"
         d="m 0,158.7 h 256 v 2.4 H 0 Z" />
      <path
         id="rect36"
         style="opacity:0.18;fill:#3e7e92"
         d="m 0,161.10001 h 256 v 1.6 H 0 Z" />
      <path
         id="rect38"
         style="opacity:0.55;fill:#06121f"
         d="m 0,199.7 h 256 v 2.4 H 0 Z" />
      <path
         id="rect40"
         style="opacity:0.18;fill:#3e7e92"
         d="m 0,202.10001 h 256 v 1.6 H 0 Z" />
    </g>
    <path
       id="line44"
       style="stroke:url(#line);stroke-width:10.2;stroke-linecap:round"
       d="M 128,34.599998 V 184.3" />
    <path
       id="circle46"
       style="fill:none;stroke:#9fd9d6;stroke-width:5.6"
       d="m 135.7,34.599998 a 7.6999998,7.6999998 0 0 1 -7.7,7.7 7.6999998,7.6999998 0 0 1 -7.7,-7.7 7.6999998,7.6999998 0 0 1 7.7,-7.699999 7.6999998,7.6999998 0 0 1 7.7,7.699999 z" />
    <path
       id="rect48"
       style="fill:#e2a33a"
       d="m 112.1,76.800003 h 31.8 c 2.8254,0 5.1,2.2746 5.1,5.1 0,2.8254 -2.2746,5.1 -5.1,5.1 h -31.8 c -2.8254,0 -5.1,-2.2746 -5.1,-5.1 0,-2.8254 2.2746,-5.1 5.1,-5.1 z" />
    <path
       id="rect50"
       style="fill:#e2a33a"
       d="m 112.1,110.1 h 31.8 c 2.8254,0 5.1,2.2746 5.1,5.1 0,2.8254 -2.2746,5.1 -5.1,5.1 h -31.8 c -2.8254,0 -5.1,-2.2746 -5.1,-5.1 0,-2.8254 2.2746,-5.1 5.1,-5.1 z" />
    <path
       id="rect52"
       style="fill:#e2a33a"
       d="m 112.1,143.39999 h 31.8 c 2.8254,0 5.1,2.2746 5.1,5.1 0,2.8254 -2.2746,5.1 -5.1,5.1 h -31.8 c -2.8254,0 -5.1,-2.2746 -5.1,-5.1 0,-2.8254 2.2746,-5.1 5.1,-5.1 z" />
    <path
       d="m 101.1,184.3 q 0,-7.1 26.9,-7.1 26.9,0 26.9,7.1 L 141.3,224 q -13.3,12.8 -26.6,0 z"
       fill="url(#lead)"
       id="path54" />
    <path
       id="line56"
       style="opacity:0.5;stroke:#6e7c88;stroke-width:2;stroke-linecap:round"
       d="m 128,181.8 v 47.30001" />
  </svg>
  <g
     aria-label="Fathomline"
     id="text60"
     style="font-weight:600;font-size:106px;letter-spacing:-1.5;fill:#c8d1da">
    <path
       d="M 225.54,124 V 46.62 h 15.052 V 124 Z m 12.932,-32.224 v -12.72 l 30.952,-0.106 v 12.72 z m 0,-32.436 V 46.62 h 32.436 v 12.72 z"
       id="path85" />
    <path
       d="m 314.98789,124 v -17.066 h -2.438 V 87.96 q 0,-4.982 -2.438,-7.42 -2.438,-2.438 -7.526,-2.438 -2.65,0 -6.36,0.106 -3.71,0.106 -7.526,0.318 -3.71,0.106 -6.678,0.318 V 66.336 q 2.438,-0.212 5.512,-0.424 3.074,-0.212 6.254,-0.212 3.286,-0.106 6.148,-0.106 8.904,0 14.734,2.332 5.936,2.332 8.904,7.314 3.074,4.982 3.074,13.038 V 124 Z m -18.55,1.484 q -6.254,0 -11.024,-2.226 -4.664,-2.226 -7.314,-6.36 -2.544,-4.134 -2.544,-9.964 0,-6.36 3.074,-10.388 3.18,-4.028 8.798,-6.042 5.724,-2.014 13.356,-2.014 h 13.356 v 8.798 h -13.568 q -5.088,0 -7.844,2.544 -2.65,2.438 -2.65,6.36 0,3.922 2.65,6.36 2.756,2.438 7.844,2.438 3.074,0 5.618,-1.06 2.65,-1.166 4.346,-3.816 1.802,-2.756 2.014,-7.42 l 3.604,4.134 q -0.53,6.042 -2.968,10.176 -2.332,4.134 -6.572,6.36 -4.134,2.12 -10.176,2.12 z"
       id="path87" />
    <path
       d="m 365.95783,124.742 q -7.95,0 -13.144,-2.014 -5.088,-2.12 -7.632,-6.996 -2.544,-4.982 -2.544,-13.356 l 0.106,-52.152 h 13.78 l -0.106,53.106 q 0,4.24 2.226,6.572 2.332,2.226 6.572,2.226 h 9.01 v 12.614 z m -32.436,-47.488 V 66.442 h 40.704 v 10.812 z"
       id="path89" />
    <path
       d="M 385.1278,124 V 46.62 h 14.734 v 45.156 h -2.544 q 0,-8.692 2.226,-14.734 2.226,-6.042 6.572,-9.222 4.452,-3.18 11.236,-3.18 h 0.636 q 9.858,0 14.946,6.784 5.088,6.784 5.088,19.716 V 124 h -14.734 V 89.762 q 0,-5.512 -3.18,-8.692 -3.074,-3.18 -8.162,-3.18 -5.406,0 -8.798,3.604 -3.286,3.498 -3.286,9.222 V 124 Z"
       id="path91" />
    <path
       d="m 479.98168,126.014 q -7.632,0 -13.462,-2.438 -5.83,-2.438 -9.858,-6.572 -4.028,-4.24 -6.148,-9.54 -2.014,-5.3 -2.014,-11.024 v -2.226 q 0,-5.936 2.12,-11.236 2.226,-5.406 6.254,-9.54 4.134,-4.24 9.964,-6.572 5.83,-2.438 13.144,-2.438 7.314,0 13.144,2.438 5.83,2.332 9.858,6.572 4.134,4.134 6.254,9.54 2.12,5.3 2.12,11.236 v 2.226 q 0,5.724 -2.12,11.024 -2.014,5.3 -6.042,9.54 -4.028,4.134 -9.858,6.572 -5.83,2.438 -13.356,2.438 z m 0,-12.614 q 5.406,0 9.116,-2.332 3.71,-2.438 5.618,-6.466 1.908,-4.134 1.908,-9.328 0,-5.3 -2.014,-9.328 -1.908,-4.134 -5.724,-6.466 -3.71,-2.438 -8.904,-2.438 -5.194,0 -9.01,2.438 -3.71,2.332 -5.724,6.466 -2.014,4.028 -2.014,9.328 0,5.194 1.908,9.328 2.014,4.028 5.724,6.466 3.71,2.332 9.116,2.332 z"
       id="path93" />
    <path
       d="M 522.78956,124 V 66.442 h 11.66 V 91.14 h -1.06 q 0,-8.692 2.226,-14.522 2.226,-5.936 6.572,-8.904 4.452,-3.074 11.024,-3.074 h 0.636 q 6.678,0 11.024,3.074 4.452,2.968 6.572,8.904 2.226,5.83 2.226,14.522 h -3.71 q 0,-8.692 2.226,-14.522 2.332,-5.936 6.678,-8.904 4.452,-3.074 11.024,-3.074 h 0.636 q 6.678,0 11.13,3.074 4.452,2.968 6.678,8.904 2.332,5.83 2.332,14.522 V 124 h -14.734 V 89.762 q 0,-5.406 -2.756,-8.586 -2.756,-3.286 -7.844,-3.286 -5.088,0 -8.162,3.392 -3.074,3.286 -3.074,8.904 V 124 h -14.734 V 89.762 q 0,-5.406 -2.756,-8.586 -2.756,-3.286 -7.844,-3.286 -5.088,0 -8.162,3.392 -3.074,3.286 -3.074,8.904 V 124 Z"
       id="path95" />
    <path
       d="M 625.69944,124 V 46.62 h 14.734 V 124 Z m -7.208,-66.356 V 46.62 h 21.942 v 11.024 z"
       id="path97" />
    <path
       d="M 658.54327,124 V 66.442 h 14.734 V 124 Z m -8.056,-46.534 V 66.442 h 22.79 v 11.024 z m 13.462,-17.914 q -4.346,0 -6.466,-2.226 -2.014,-2.332 -2.014,-5.83 0,-3.498 2.014,-5.724 2.12,-2.226 6.466,-2.226 4.346,0 6.36,2.226 2.014,2.226 2.014,5.724 0,3.498 -2.014,5.83 -2.014,2.226 -6.36,2.226 z"
       id="path99" />
    <path
       d="M 688.73713,124 V 66.442 h 11.66 V 91.14 h -1.06 q 0,-8.798 2.332,-14.628 2.332,-5.936 6.89,-8.904 4.664,-2.968 11.554,-2.968 h 0.636 q 10.282,0 15.582,6.678 5.3,6.572 5.3,19.716 V 124 h -14.734 V 89.762 q 0,-5.3 -3.074,-8.586 -2.968,-3.286 -8.268,-3.286 -5.406,0 -8.798,3.392 -3.286,3.286 -3.286,8.904 V 124 Z"
       id="path101" />
    <path
       d="m 781.68303,126.014 q -7.42,0 -13.038,-2.544 -5.512,-2.544 -9.222,-6.784 -3.604,-4.346 -5.512,-9.646 -1.802,-5.3 -1.802,-10.812 v -2.014 q 0,-5.724 1.802,-11.024 1.908,-5.406 5.512,-9.54 3.71,-4.24 9.116,-6.678 5.406,-2.544 12.508,-2.544 9.328,0 15.582,4.134 6.36,4.028 9.54,10.706 3.18,6.572 3.18,14.204 v 5.3 h -50.986 v -9.01 h 41.764 l -4.558,4.452 q 0,-5.512 -1.59,-9.434 -1.59,-3.922 -4.876,-6.042 -3.18,-2.12 -8.056,-2.12 -4.876,0 -8.268,2.226 -3.392,2.226 -5.194,6.466 -1.696,4.134 -1.696,9.964 0,5.406 1.696,9.646 1.696,4.134 5.194,6.572 3.498,2.332 8.904,2.332 5.406,0 8.798,-2.12 3.392,-2.226 4.346,-5.406 h 13.568 q -1.272,5.936 -4.876,10.388 -3.604,4.452 -9.222,6.89 -5.512,2.438 -12.614,2.438 z"
       id="path103" />
  </g>
  <g
     aria-label="SOUND OUT YOUR STORAGE ESTATE"
     id="text62"
     style="font-size:28.5px;letter-spacing:4.2;fill:#e2a33a">
    <path
       d="m 230.6615,178.5415 q -2.7645,0 -4.674,-0.8835 -1.881,-0.8835 -2.8785,-2.4225 -0.9975,-1.5675 -0.9975,-3.534 h 3.9615 q 0,0.8265 0.456,1.6245 0.456,0.7695 1.4535,1.254 1.026,0.4845 2.679,0.4845 1.482,0 2.4795,-0.4275 0.9975,-0.4275 1.482,-1.1115 0.4845,-0.7125 0.4845,-1.596 0,-1.1115 -0.9405,-1.767 -0.9405,-0.684 -2.907,-0.855 l -1.824,-0.1425 q -2.9925,-0.2565 -4.788,-1.8525 -1.767,-1.6245 -1.767,-4.275 0,-1.995 0.9405,-3.42 0.9405,-1.4535 2.622,-2.223 1.71,-0.798 3.99,-0.798 2.3655,0 4.0755,0.8265 1.71,0.8265 2.6505,2.337 0.9405,1.482 0.9405,3.5055 h -3.9615 q 0,-0.855 -0.4275,-1.5675 -0.399,-0.741 -1.2255,-1.1685 -0.798,-0.456 -2.052,-0.456 -1.197,0 -1.995,0.399 -0.798,0.399 -1.197,1.083 -0.399,0.684 -0.399,1.482 0,0.969 0.7125,1.71 0.7125,0.7125 2.2515,0.8265 l 1.824,0.171 q 2.223,0.171 3.9045,0.9405 1.6815,0.7695 2.5935,2.0805 0.9405,1.311 0.9405,3.1635 0,1.9665 -1.026,3.477 -1.026,1.482 -2.9355,2.3085 -1.881,0.8265 -4.446,0.8265 z"
       id="path106" />
    <path
       d="m 256.74949,178.5415 q -2.8215,0 -4.902,-0.9975 -2.052,-0.9975 -3.42,-2.5935 -1.3395,-1.6245 -2.0235,-3.477 -0.6555,-1.881 -0.6555,-3.6195 v -0.627 q 0,-1.9095 0.684,-3.7905 0.684,-1.9095 2.052,-3.4485 1.3965,-1.539 3.4485,-2.451 2.052,-0.9405 4.8165,-0.9405 2.736,0 4.788,0.9405 2.052,0.912 3.42,2.451 1.3965,1.539 2.0805,3.4485 0.684,1.881 0.684,3.7905 v 0.627 q 0,1.7385 -0.684,3.6195 -0.6555,1.8525 -2.0235,3.477 -1.3395,1.596 -3.42,2.5935 -2.052,0.9975 -4.845,0.9975 z m 0,-3.762 q 1.596,0 2.85,-0.57 1.2825,-0.57 2.166,-1.5675 0.912,-1.026 1.368,-2.3085 0.4845,-1.311 0.4845,-2.7645 0,-1.5675 -0.4845,-2.8785 -0.456,-1.311 -1.368,-2.28 -0.8835,-0.969 -2.166,-1.5105 -1.2825,-0.5415 -2.85,-0.5415 -1.596,0 -2.8785,0.5415 -1.2825,0.5415 -2.1945,1.5105 -0.8835,0.969 -1.368,2.28 -0.456,1.311 -0.456,2.8785 0,1.4535 0.456,2.7645 0.4845,1.2825 1.368,2.3085 0.912,0.9975 2.1945,1.5675 1.2825,0.57 2.8785,0.57 z"
       id="path108" />
    <path
       d="m 284.40499,178.5415 q -2.907,0 -4.902,-1.1115 -1.995,-1.1115 -3.0495,-3.1065 -1.026,-2.0235 -1.026,-4.731 V 157.195 h 4.047 v 12.6255 q 0,1.482 0.57,2.622 0.57,1.1115 1.653,1.7385 1.1115,0.5985 2.7075,0.5985 1.5675,0 2.6505,-0.5985 1.1115,-0.627 1.653,-1.7385 0.57,-1.1115 0.57,-2.622 V 157.195 h 4.047 v 12.3975 q 0,2.7075 -1.026,4.731 -0.9975,1.995 -2.9925,3.1065 -1.995,1.1115 -4.902,1.1115 z"
       id="path110" />
    <path
       d="m 302.25645,178 v -20.805 h 6.6405 l 8.7495,17.442 h 0.9405 l -0.57,0.513 v -17.955 h 3.819 V 178 h -6.669 l -8.7495,-17.442 h -0.969 l 0.57,-0.513 V 178 Z"
       id="path112" />
    <path
       d="m 334.64291,178.114 v -3.762 h 4.3035 q 1.6245,0 2.8785,-0.4845 1.2825,-0.513 2.166,-1.425 0.8835,-0.912 1.3395,-2.1375 0.4845,-1.254 0.4845,-2.7645 0,-1.5675 -0.4845,-2.793 -0.456,-1.254 -1.3395,-2.1375 -0.8835,-0.8835 -2.166,-1.3395 -1.254,-0.456 -2.8785,-0.456 h -4.3035 v -3.762 h 4.047 q 2.8215,0 4.9305,0.8265 2.109,0.8265 3.5055,2.28 1.3965,1.425 2.0805,3.2775 0.7125,1.824 0.7125,3.7905 v 0.627 q 0,1.881 -0.7125,3.705 -0.684,1.824 -2.0805,3.306 -1.3965,1.482 -3.5055,2.3655 -2.109,0.8835 -4.9305,0.8835 z m -3.477,0 v -21.0615 h 4.047 v 21.0615 z"
       id="path114" />
    <path
       d="m 377.86989,178.5415 q -2.8215,0 -4.902,-0.9975 -2.052,-0.9975 -3.42,-2.5935 -1.3395,-1.6245 -2.0235,-3.477 -0.6555,-1.881 -0.6555,-3.6195 v -0.627 q 0,-1.9095 0.684,-3.7905 0.684,-1.9095 2.052,-3.4485 1.3965,-1.539 3.4485,-2.451 2.052,-0.9405 4.8165,-0.9405 2.736,0 4.788,0.9405 2.052,0.912 3.42,2.451 1.3965,1.539 2.0805,3.4485 0.684,1.881 0.684,3.7905 v 0.627 q 0,1.7385 -0.684,3.6195 -0.6555,1.8525 -2.0235,3.477 -1.3395,1.596 -3.42,2.5935 -2.052,0.9975 -4.845,0.9975 z m 0,-3.762 q 1.596,0 2.85,-0.57 1.2825,-0.57 2.166,-1.5675 0.912,-1.026 1.368,-2.3085 0.4845,-1.311 0.4845,-2.7645 0,-1.5675 -0.4845,-2.8785 -0.456,-1.311 -1.368,-2.28 -0.8835,-0.969 -2.166,-1.5105 -1.2825,-0.5415 -2.85,-0.5415 -1.596,0 -2.8785,0.5415 -1.2825,0.5415 -2.1945,1.5105 -0.8835,0.969 -1.368,2.28 -0.456,1.311 -0.456,2.8785 0,1.4535 0.456,2.7645 0.4845,1.2825 1.368,2.3085 0.912,0.9975 2.1945,1.5675 1.2825,0.57 2.8785,0.57 z"
       id="path116" />
    <path
       d="m 405.52538,178.5415 q -2.907,0 -4.902,-1.1115 -1.995,-1.1115 -3.0495,-3.1065 -1.026,-2.0235 -1.026,-4.731 V 157.195 h 4.047 v 12.6255 q 0,1.482 0.57,2.622 0.57,1.1115 1.653,1.7385 1.1115,0.5985 2.7075,0.5985 1.5675,0 2.6505,-0.5985 1.1115,-0.627 1.653,-1.7385 0.57,-1.1115 0.57,-2.622 V 157.195 h 4.047 v 12.3975 q 0,2.7075 -1.026,4.731 -0.9975,1.995 -2.9925,3.1065 -1.995,1.1115 -4.902,1.1115 z"
       id="path118" />
    <path
       d="m 427.42384,178 v -17.8125 h 4.047 V 178 Z m -6.0135,-17.2425 v -3.5625 h 16.074 v 3.5625 z"
       id="path120" />
    <path
       d="m 459.25079,170.0485 -6.27,-12.8535 h 4.161 l 4.788,10.0605 -0.912,-0.285 h 2.7075 l -0.969,0.285 4.3605,-10.0605 h 3.933 l -5.7855,12.8535 z m 1.026,7.9515 v -8.5785 h 3.9615 V 178 Z"
       id="path122" />
    <path
       d="m 487.16272,178.5415 q -2.8215,0 -4.902,-0.9975 -2.052,-0.9975 -3.42,-2.5935 -1.3395,-1.6245 -2.0235,-3.477 -0.6555,-1.881 -0.6555,-3.6195 v -0.627 q 0,-1.9095 0.684,-3.7905 0.684,-1.9095 2.052,-3.4485 1.3965,-1.539 3.4485,-2.451 2.052,-0.9405 4.8165,-0.9405 2.736,0 4.788,0.9405 2.052,0.912 3.42,2.451 1.3965,1.539 2.0805,3.4485 0.684,1.881 0.684,3.7905 v 0.627 q 0,1.7385 -0.684,3.6195 -0.6555,1.8525 -2.0235,3.477 -1.3395,1.596 -3.42,2.5935 -2.052,0.9975 -4.845,0.9975 z m 0,-3.762 q 1.596,0 2.85,-0.57 1.2825,-0.57 2.166,-1.5675 0.912,-1.026 1.368,-2.3085 0.4845,-1.311 0.4845,-2.7645 0,-1.5675 -0.4845,-2.8785 -0.456,-1.311 -1.368,-2.28 -0.8835,-0.969 -2.166,-1.5105 -1.2825,-0.5415 -2.85,-0.5415 -1.596,0 -2.8785,0.5415 -1.2825,0.5415 -2.1945,1.5105 -0.8835,0.969 -1.368,2.28 -0.456,1.311 -0.456,2.8785 0,1.4535 0.456,2.7645 0.4845,1.2825 1.368,2.3085 0.912,0.9975 2.1945,1.5675 1.2825,0.57 2.8785,0.57 z"
       id="path124" />
    <path
       d="m 514.81821,178.5415 q -2.907,0 -4.902,-1.1115 -1.995,-1.1115 -3.0495,-3.1065 -1.026,-2.0235 -1.026,-4.731 V 157.195 h 4.047 v 12.6255 q 0,1.482 0.57,2.622 0.57,1.1115 1.653,1.7385 1.1115,0.5985 2.7075,0.5985 1.5675,0 2.6505,-0.5985 1.1115,-0.627 1.653,-1.7385 0.57,-1.1115 0.57,-2.622 V 157.195 h 4.047 v 12.3975 q 0,2.7075 -1.026,4.731 -0.9975,1.995 -2.9925,3.1065 -1.995,1.1115 -4.902,1.1115 z"
       id="path126" />
    <path
       d="m 532.66968,178 v -20.9475 h 4.047 V 178 Z m 12.711,0 -6.384,-9.063 h 4.5315 l 6.5835,9.063 z m -9.861,-6.954 v -3.2775 h 5.301 q 1.1115,0 1.9095,-0.456 0.8265,-0.456 1.2825,-1.2825 0.456,-0.8265 0.456,-1.881 0,-1.083 -0.456,-1.9095 -0.456,-0.8265 -1.2825,-1.2825 -0.798,-0.456 -1.9095,-0.456 h -5.301 v -3.4485 h 4.8735 q 2.508,0 4.332,0.741 1.8525,0.741 2.85,2.2515 0.9975,1.5105 0.9975,3.7905 v 0.456 q 0,2.3085 -1.026,3.7905 -0.9975,1.482 -2.8215,2.223 -1.824,0.741 -4.332,0.741 z"
       id="path128" />
    <path
       d="m 574.84213,178.5415 q -2.7645,0 -4.674,-0.8835 -1.881,-0.8835 -2.8785,-2.4225 -0.9975,-1.5675 -0.9975,-3.534 h 3.9615 q 0,0.8265 0.456,1.6245 0.456,0.7695 1.4535,1.254 1.026,0.4845 2.679,0.4845 1.482,0 2.4795,-0.4275 0.9975,-0.4275 1.482,-1.1115 0.4845,-0.7125 0.4845,-1.596 0,-1.1115 -0.9405,-1.767 -0.9405,-0.684 -2.907,-0.855 l -1.824,-0.1425 q -2.9925,-0.2565 -4.788,-1.8525 -1.767,-1.6245 -1.767,-4.275 0,-1.995 0.9405,-3.42 0.9405,-1.4535 2.622,-2.223 1.71,-0.798 3.99,-0.798 2.3655,0 4.0755,0.8265 1.71,0.8265 2.6505,2.337 0.9405,1.482 0.9405,3.5055 h -3.9615 q 0,-0.855 -0.4275,-1.5675 -0.399,-0.741 -1.2255,-1.1685 -0.798,-0.456 -2.052,-0.456 -1.197,0 -1.995,0.399 -0.798,0.399 -1.197,1.083 -0.399,0.684 -0.399,1.482 0,0.969 0.7125,1.71 0.7125,0.7125 2.2515,0.8265 l 1.824,0.171 q 2.223,0.171 3.9045,0.9405 1.6815,0.7695 2.5935,2.0805 0.9405,1.311 0.9405,3.1635 0,1.9665 -1.026,3.477 -1.026,1.482 -2.9355,2.3085 -1.881,0.8265 -4.446,0.8265 z"
       id="path130" />
    <path
       d="m 594.68862,178 v -17.8125 h 4.047 V 178 Z m -6.0135,-17.2425 v -3.5625 h 16.074 v 3.5625 z"
       id="path132" />
    <path
       d="m 621.34654,178.5415 q -2.8215,0 -4.902,-0.9975 -2.052,-0.9975 -3.42,-2.5935 -1.3395,-1.6245 -2.0235,-3.477 -0.6555,-1.881 -0.6555,-3.6195 v -0.627 q 0,-1.9095 0.684,-3.7905 0.684,-1.9095 2.052,-3.4485 1.3965,-1.539 3.4485,-2.451 2.052,-0.9405 4.8165,-0.9405 2.736,0 4.788,0.9405 2.052,0.912 3.42,2.451 1.3965,1.539 2.0805,3.4485 0.684,1.881 0.684,3.7905 v 0.627 q 0,1.7385 -0.684,3.6195 -0.6555,1.8525 -2.0235,3.477 -1.3395,1.596 -3.42,2.5935 -2.052,0.9975 -4.845,0.9975 z m 0,-3.762 q 1.596,0 2.85,-0.57 1.2825,-0.57 2.166,-1.5675 0.912,-1.026 1.368,-2.3085 0.4845,-1.311 0.4845,-2.7645 0,-1.5675 -0.4845,-2.8785 -0.456,-1.311 -1.368,-2.28 -0.8835,-0.969 -2.166,-1.5105 -1.2825,-0.5415 -2.85,-0.5415 -1.596,0 -2.8785,0.5415 -1.2825,0.5415 -2.1945,1.5105 -0.8835,0.969 -1.368,2.28 -0.456,1.311 -0.456,2.8785 0,1.4535 0.456,2.7645 0.4845,1.2825 1.368,2.3085 0.912,0.9975 2.1945,1.5675 1.2825,0.57 2.8785,0.57 z"
       id="path134" />
    <path
       d="m 640.42352,178 v -20.9475 h 4.047 V 178 Z m 12.711,0 -6.384,-9.063 h 4.5315 l 6.5835,9.063 z m -9.861,-6.954 v -3.2775 h 5.301 q 1.1115,0 1.9095,-0.456 0.8265,-0.456 1.2825,-1.2825 0.456,-0.8265 0.456,-1.881 0,-1.083 -0.456,-1.9095 -0.456,-0.8265 -1.2825,-1.2825 -0.798,-0.456 -1.9095,-0.456 h -5.301 v -3.4485 h 4.8735 q 2.508,0 4.332,0.741 1.8525,0.741 2.85,2.2515 0.9975,1.5105 0.9975,3.7905 v 0.456 q 0,2.3085 -1.026,3.7905 -0.9975,1.482 -2.8215,2.223 -1.824,0.741 -4.332,0.741 z"
       id="path136" />
    <path
       d="m 663.09152,178 7.0965,-20.805 h 6.612 l 7.296,20.805 h -4.161 l -6.1845,-18.0405 1.4535,0.627 h -3.5625 l 1.482,-0.627 -5.985,18.0405 z m 4.959,-5.529 1.2825,-3.42 h 8.436 l 1.254,3.42 z"
       id="path138" />
    <path
       d="m 700.26593,178.5415 q -2.679,0 -4.731,-0.8835 -2.0235,-0.912 -3.42,-2.4225 -1.368,-1.539 -2.0805,-3.4485 -0.684,-1.938 -0.684,-4.0185 v -0.627 q 0,-1.9665 0.684,-3.8475 0.684,-1.881 1.995,-3.3915 1.3395,-1.5105 3.2775,-2.394 1.9665,-0.912 4.503,-0.912 2.736,0 4.845,1.026 2.109,0.9975 3.3915,2.8215 1.2825,1.7955 1.5105,4.1895 h -4.0755 q -0.1995,-1.3395 -0.9975,-2.28 -0.798,-0.969 -2.0235,-1.482 -1.197,-0.513 -2.6505,-0.513 -1.4535,0 -2.6505,0.513 -1.1685,0.513 -1.995,1.4535 -0.8265,0.9405 -1.2825,2.2515 -0.4275,1.311 -0.4275,2.907 0,1.7385 0.4845,3.1065 0.4845,1.368 1.368,2.337 0.8835,0.9405 2.1375,1.4535 1.254,0.4845 2.8215,0.4845 2.0805,0 3.648,-0.855 1.5675,-0.8835 2.28,-2.28 l -0.7125,3.2775 v -5.358 h 3.7335 v 4.617 q -1.3395,2.0235 -3.648,3.1635 -2.3085,1.1115 -5.301,1.1115 z m -0.6555,-8.094 v -3.021 h 11.343 v 3.021 z"
       id="path140" />
    <path
       d="m 718.48788,178 v -20.805 h 3.9615 V 178 Z m 3.3915,0 v -3.42 h 9.4335 V 178 Z m 0,-8.8635 v -3.42 h 8.6925 v 3.42 z m 0,-8.5215 v -3.42 h 9.2055 v 3.42 z"
       id="path142" />
    <path
       d="m 750.02984,178 v -20.805 h 3.9615 V 178 Z m 3.3915,0 v -3.42 h 9.4335 V 178 Z m 0,-8.8635 v -3.42 h 8.6925 v 3.42 z m 0,-8.5215 v -3.42 h 9.2055 v 3.42 z"
       id="path144" />
    <path
       d="m 778.1413,178.5415 q -2.7645,0 -4.674,-0.8835 -1.881,-0.8835 -2.8785,-2.4225 -0.9975,-1.5675 -0.9975,-3.534 h 3.9615 q 0,0.8265 0.456,1.6245 0.456,0.7695 1.4535,1.254 1.026,0.4845 2.679,0.4845 1.482,0 2.4795,-0.4275 0.9975,-0.4275 1.482,-1.1115 0.4845,-0.7125 0.4845,-1.596 0,-1.1115 -0.9405,-1.767 -0.9405,-0.684 -2.907,-0.855 l -1.824,-0.1425 q -2.9925,-0.2565 -4.788,-1.8525 -1.767,-1.6245 -1.767,-4.275 0,-1.995 0.9405,-3.42 0.9405,-1.4535 2.622,-2.223 1.71,-0.798 3.99,-0.798 2.3655,0 4.0755,0.8265 1.71,0.8265 2.6505,2.337 0.9405,1.482 0.9405,3.5055 h -3.9615 q 0,-0.855 -0.4275,-1.5675 -0.399,-0.741 -1.2255,-1.1685 -0.798,-0.456 -2.052,-0.456 -1.197,0 -1.995,0.399 -0.798,0.399 -1.197,1.083 -0.399,0.684 -0.399,1.482 0,0.969 0.7125,1.71 0.7125,0.7125 2.2515,0.8265 l 1.824,0.171 q 2.223,0.171 3.9045,0.9405 1.6815,0.7695 2.5935,2.0805 0.9405,1.311 0.9405,3.1635 0,1.9665 -1.026,3.477 -1.026,1.482 -2.9355,2.3085 -1.881,0.8265 -4.446,0.8265 z"
       id="path146" />
    <path
       d="m 797.98779,178 v -17.8125 h 4.047 V 178 Z m -6.0135,-17.2425 v -3.5625 h 16.074 v 3.5625 z"
       id="path148" />
    <path
       d="m 811.64972,178 7.0965,-20.805 h 6.612 l 7.296,20.805 h -4.161 l -6.1845,-18.0405 1.4535,0.627 h -3.5625 l 1.482,-0.627 -5.985,18.0405 z m 4.959,-5.529 1.2825,-3.42 h 8.436 l 1.254,3.42 z"
       id="path150" />
    <path
       d="m 842.26922,178 v -17.8125 h 4.047 V 178 Z m -6.0135,-17.2425 v -3.5625 h 16.074 v 3.5625 z"
       id="path152" />
    <path
       d="m 859.75018,178 v -20.805 h 3.9615 V 178 Z m 3.3915,0 v -3.42 h 9.4335 V 178 Z m 0,-8.8635 v -3.42 h 8.6925 v 3.42 z m 0,-8.5215 v -3.42 h 9.2055 v 3.42 z"
       id="path154" />
  </g>
</svg>
